<svg width="512" height="512" viewBox="0 0 512 512" fill="none" xmlns="http://www.w3.org/2000/svg">
<path d="M377.071 369.484C353.926 369.484 330.78 369.484 307.635 369.484C307.159 369.484 306.671 369.511 306.196 369.603C304.626 369.88 303.029 370.289 301.749 371.174C300.232 372.216 298.846 373.536 298.226 375.409C297.856 376.531 297.461 377.626 297.183 378.788C296.814 380.305 296.933 381.783 296.919 383.287C296.893 388.671 296.919 394.068 296.919 399.452V401.155H298.609C309.548 401.155 320.487 401.155 331.427 401.168C332.377 401.168 333.314 401.366 334.264 401.484C334.356 401.484 334.462 401.564 334.528 401.643C335.042 402.329 335.953 402.672 336.19 403.596C336.19 403.609 336.85 405.786 336.85 405.8C336.943 406.512 336.599 407.132 336.349 407.739C335.861 408.887 335.174 409.943 334.277 410.84C315.724 429.381 297.197 447.934 278.63 466.448C276.637 468.44 274.328 470.063 271.676 471.146C270.29 471.713 267.084 472.426 266.133 472.056C264.339 471.343 262.425 470.974 260.71 470.024C258.995 469.074 257.319 468.137 256.012 466.633C255.682 466.25 254.943 466.078 254.811 465.669C254.614 465.049 254.112 464.97 253.743 464.64C253.399 464.336 253.175 463.901 252.911 463.505C252.661 463.149 252.133 463.175 251.948 462.608C251.816 462.199 250.998 462.04 250.813 461.631C250.602 461.143 250.246 460.853 249.916 460.523C248.451 459.032 246.986 457.541 245.482 456.089C243.054 453.74 240.613 451.404 238.145 449.095C237.512 448.501 237.353 447.419 236.311 447.235C236.034 446.284 235.15 445.836 234.556 445.163C233.896 444.424 233.17 443.751 232.471 443.051C231.811 442.392 231.151 441.732 230.491 441.072C229.832 440.412 229.172 439.753 228.512 439.093C227.852 438.433 227.192 437.773 226.533 437.113C225.833 436.414 225.134 435.715 224.435 435.015C223.775 434.355 223.115 433.696 222.455 433.036C221.795 432.376 221.136 431.716 220.476 431.056C219.79 430.357 218.998 429.776 218.378 428.998C217.731 428.193 216.926 427.507 216.187 426.768C215.448 426.029 214.709 425.29 213.97 424.551C213.231 423.812 212.492 423.073 211.753 422.334C210.975 421.555 210.196 420.777 209.418 419.998C208.679 419.259 207.94 418.52 207.201 417.781C206.462 417.042 205.723 416.303 204.984 415.564C204.245 414.826 203.506 414.087 202.767 413.348C202.028 412.609 201.289 411.87 200.55 411.131C199.639 410.22 198.61 408.61 198.214 407.475C197.502 405.43 198.056 403.332 199.771 402.21C201.078 401.366 202.503 400.732 204.139 400.825C204.192 400.825 204.245 400.825 204.298 400.825C209.748 400.93 215.197 401.089 220.661 401.141C226.163 401.194 231.653 401.141 237.155 401.141H238.897V383.327C238.897 382.443 238.858 381.572 238.897 380.688C238.937 379.83 238.356 379.065 238.541 378.181C238.581 378.022 238.369 377.824 238.303 377.626C237.551 375.027 236.232 372.863 233.672 371.688C232.642 370.553 231.125 370.369 229.805 369.867C228.842 369.511 227.72 369.484 226.665 369.484C197.739 369.471 168.827 369.471 139.902 369.471C139.73 368.851 140.324 368.653 140.562 368.257C141.432 366.806 142.33 365.367 143.188 363.903C144.045 362.451 144.916 361 145.695 359.508C146.025 358.875 146.618 358.374 146.645 357.595C148.123 355.668 148.941 353.372 150.261 351.353C151.593 349.282 152.834 347.17 153.982 344.993C154.219 344.544 154.43 344.082 154.681 343.634C155.526 342.116 156.436 340.625 157.215 339.081C157.584 338.355 157.914 337.616 158.323 336.904C159.55 334.727 160.659 332.483 161.978 330.345C162.823 329 163.456 327.535 164.433 326.242C165.145 325.305 165.818 324.289 166.241 323.207C167.059 321.148 168.233 319.301 169.342 317.414C170.041 316.213 170.859 315.078 171.532 313.864C172.245 312.571 172.733 311.146 173.564 309.945C174.132 309.127 174.528 308.242 175.029 307.411C176.111 305.603 177.193 303.822 178.196 301.961C179.093 300.285 180.149 298.702 181.086 297.052C181.719 295.944 182.168 294.73 182.868 293.674C183.831 292.223 184.583 290.639 185.414 289.122C186.219 287.644 186.971 286.126 187.882 284.714C189.043 282.893 190.125 281.046 191.115 279.132C192.421 276.638 193.662 274.105 195.311 271.809H216.425C216.425 282.959 216.425 294.123 216.425 305.273C216.425 306.87 216.952 308.335 217.335 309.839C217.757 311.555 218.47 313.112 219.42 314.59C220.265 315.896 221.056 317.242 222.046 318.443C223.643 320.383 225.912 321.399 228.077 322.534C229.04 322.507 229.713 323.51 230.742 323.273C231.349 323.932 232.181 323.418 232.88 323.695C233.856 324.077 234.859 324.328 235.941 324.275C236.931 324.223 237.921 324.275 238.91 324.275C239.188 324.275 239.491 324.341 239.715 324.249C242.407 323.061 245.31 322.428 247.963 321.056C250.272 319.855 252.581 318.654 254.811 317.334C255.788 316.767 256.685 316.054 257.688 315.513C258.097 315.302 258.533 315.289 258.968 314.986C260.604 313.837 262.32 312.782 264.075 311.818C265.157 311.225 266.226 310.618 267.242 309.931C268.139 309.338 269.05 308.731 269.987 308.19C270.91 307.649 271.927 307.24 272.811 306.646C274.605 305.445 276.492 304.402 278.392 303.4C280.345 302.37 282.193 301.156 284.093 300.048C285.822 299.032 287.524 297.963 289.213 296.907C290.559 296.063 291.931 295.258 293.304 294.44C295.019 293.397 296.708 292.328 298.437 291.312C299.044 290.956 299.73 290.718 300.35 290.362C301.815 289.491 303.227 288.567 304.692 287.696C306.011 286.905 307.397 286.245 308.69 285.387C309.376 284.939 310.155 284.635 310.775 284.068C310.96 283.909 311.237 283.843 311.448 283.724C311.857 283.5 312.24 283.263 312.649 283.038C313.731 282.431 314.681 281.64 315.79 281.072C317.109 280.386 318.336 279.515 319.603 278.723C319.735 278.644 319.854 278.459 319.986 278.459C320.87 278.459 321.279 277.536 322.005 277.364C322.915 277.14 323.443 276.506 324.063 275.939C324.129 275.873 324.248 275.86 324.341 275.82C324.446 276.11 324.684 276.401 324.644 276.665C324.512 277.72 325.053 278.459 325.607 279.251C326.201 280.096 326.742 280.967 327.244 281.864C327.864 282.972 328.273 284.226 329.038 285.229C329.804 286.232 330.173 287.419 330.859 288.449C331.572 289.517 332.205 290.626 332.852 291.748C333.38 292.671 333.842 293.648 334.383 294.571C335.531 296.524 336.745 298.425 337.866 300.391C338.592 301.671 339.094 303.096 339.885 304.323C341.086 306.184 342.076 308.15 343.224 310.037C343.699 310.816 344.055 311.673 344.477 312.478C344.886 313.244 345.559 313.824 345.837 314.722C346.087 315.579 346.615 316.397 347.13 317.15C348.766 319.512 350.033 322.098 351.405 324.618C351.484 324.75 351.55 324.896 351.63 325.014C352.435 326.334 353.292 327.614 354.031 328.973C355.113 330.939 356.275 332.879 357.291 334.885C358.346 336.93 359.626 338.844 360.708 340.876C361.817 342.948 362.886 345.059 364.258 346.999C364.76 347.711 365.169 348.477 365.578 349.255C366.264 350.562 366.924 351.881 367.597 353.201C368.336 353.478 368.151 354.283 368.507 354.811C369.734 356.632 370.882 358.519 371.859 360.498C372.11 361 372.44 361.461 372.717 361.95C373.812 363.916 374.934 365.869 375.976 367.861C376.557 368.983 376.504 369.009 377.137 369.498L377.071 369.484Z" fill="#4285F3"/>
<path d="M269.856 139.876C316.583 139.876 363.31 139.876 410.036 139.85C410.907 139.85 411.712 140.259 412.53 140.18C413.428 140.087 414.18 140.628 415.037 140.536C416.014 141.275 417.241 141.367 418.35 141.684C420.039 142.146 421.649 142.792 423.153 143.624C425.238 144.758 427.27 145.999 429.157 147.503C430.397 148.493 431.242 149.76 432.364 150.789C433.525 151.845 434.462 153.072 435.24 154.391C436.349 156.278 437.536 158.126 438.13 160.29C438.421 161.359 438.909 162.375 439.173 163.497C439.463 164.737 439.701 166.004 440.057 167.244C440.677 169.356 440.756 171.533 440.756 173.723C440.73 205.987 440.743 238.264 440.743 270.528C440.162 270.568 439.542 270.357 439.107 270.977C438.988 271.135 438.632 271.162 438.381 271.175C435.293 271.294 432.192 270.898 429.117 271.518C424.222 271.518 419.339 271.465 414.444 271.531C409.601 271.597 404.745 271.215 399.902 271.848H334.12C333.685 271.848 333.236 271.861 332.801 271.835C332.708 271.835 332.629 271.624 332.537 271.518C332.972 271.188 333.395 270.832 333.843 270.542C334.793 269.935 335.783 269.38 336.746 268.787C337.182 268.509 337.591 268.166 338.026 267.902C338.422 267.665 338.871 267.52 339.24 267.269C340.758 266.279 342.328 265.342 343.753 264.247C344.915 263.35 346.234 262.677 347.303 261.608C348.675 260.249 349.454 258.494 350.655 257.029C350.866 256.765 350.892 256.356 350.998 256.026C351.196 255.445 351.301 254.812 351.605 254.297C352.054 253.558 352.317 252.806 352.317 251.949C352.317 250.246 352.265 248.544 352.317 246.842C352.37 245.153 351.354 243.82 350.906 242.302C350.8 241.933 350.259 241.709 350.021 241.352C349.771 240.983 349.665 240.508 349.414 240.125C349.071 239.597 348.649 239.122 348.253 238.621C347.897 238.159 347.514 237.723 347.211 237.235C346.894 236.694 346.036 236.721 345.931 235.982C343.859 234.847 342.13 233.131 339.9 232.234C339.478 232.062 339.148 231.667 338.739 231.442C338.29 231.191 337.815 231.073 337.367 230.769C336.06 229.872 334.741 228.988 333.315 228.236C332.51 227.8 331.613 227.444 330.914 226.863C329.37 225.61 327.628 224.699 325.926 223.749C323.788 222.548 321.861 220.951 319.539 220.067C319.354 220.001 319.222 219.777 319.051 219.658C318.035 218.959 317.084 218.207 315.91 217.692C315.052 217.323 314.155 216.834 313.376 216.254C311.595 214.921 309.734 213.733 307.702 212.81C307.425 212.678 307.122 212.598 306.884 212.401C305.828 211.556 304.562 211.055 303.48 210.289C302.331 209.484 301.117 208.838 299.89 208.191C299.706 208.099 299.534 207.98 299.362 207.861C297.964 206.977 296.631 205.987 295.166 205.248C292.725 204.008 290.534 202.372 288.212 200.96C287.658 200.617 286.919 200.709 286.536 200.26C285.863 199.455 284.9 199.125 284.095 198.558C282.287 197.291 280.347 196.222 278.421 195.154C277.563 194.678 276.732 194.177 275.913 193.636C273.63 192.145 271.387 190.601 268.959 189.321C266.914 188.239 264.921 187.078 263.008 185.771C262.454 185.389 261.886 185.019 261.319 184.663C260.316 184.029 259.3 183.422 258.297 182.789V160.026C258.521 159.815 258.759 159.643 258.957 159.406C259.735 158.443 259.999 157.189 260.685 156.173C261.49 154.985 262.071 153.666 262.77 152.425C263.562 151.04 264.446 149.72 265.225 148.335C266.795 145.537 268.313 142.7 269.856 139.889V139.876Z" fill="#FBBC05"/>
<path d="M258.309 160V182.763C257.794 182.433 257.134 182.235 256.699 181.905C255.261 180.771 253.598 180.032 252.028 179.187C249.639 177.92 247.369 176.455 244.875 175.36C242.579 174.344 240.811 173.975 238.898 173.869C237.578 173.79 236.259 173.816 234.939 173.869C233.883 173.909 232.828 174.041 231.772 174.199C231.033 174.305 226.296 176.535 225.543 177.089C223.973 178.237 222.548 179.517 221.268 180.995C219.579 182.935 218.312 185.125 217.468 187.514C216.795 189.427 216.359 191.406 216.372 193.505C216.412 219.619 216.399 245.734 216.399 271.848H104.894C104.894 238.318 104.894 204.787 104.867 171.256C104.867 170.385 105.131 169.594 105.237 168.749C105.329 167.97 105.171 167.205 105.487 166.387C105.751 165.661 105.83 164.738 105.857 163.906C105.91 162.309 106.517 160.884 106.979 159.406C107.176 158.773 107.322 158.113 107.572 157.506C107.836 156.899 108.219 156.345 108.536 155.764C110.014 153.046 111.439 150.301 113.854 148.243C116.598 145.907 119.435 143.703 122.787 142.331C124.146 141.777 125.585 141.302 127.102 141.17C128.013 141.091 128.897 140.761 129.794 140.536C131.114 140.193 132.42 139.863 133.806 139.863C171.572 139.863 209.326 139.863 247.092 139.863C247.435 140.827 247.633 141.843 248.359 142.634C248.663 142.964 248.847 143.413 249.072 143.822C249.771 145.128 250.378 146.488 251.196 147.715C252.503 149.681 253.585 151.779 254.68 153.864C255.34 155.131 256 156.398 256.659 157.651C256.857 158.008 257.306 158.377 257.28 158.694C257.187 159.552 257.741 159.736 258.309 159.974V160Z" fill="#34A853"/>
<path d="M73.8961 271.835C73.8961 213.021 73.8961 154.207 73.9093 95.3934C73.9093 94.3773 73.6585 93.3348 74.094 92.3451C74.5031 91.4082 73.8565 90.2998 74.5559 89.4025C74.5822 87.6078 75.2816 85.9451 75.5587 84.2033C75.6643 83.5567 76.2977 83.0684 76.2053 82.3295C77.129 80.9571 77.3534 79.2812 78.1847 77.8693C79.2932 75.9954 80.3356 74.0952 81.7608 72.4062C82.4866 71.5484 83.2255 70.7039 84.0041 69.8857C85.0994 68.7245 86.5245 67.9592 87.7253 66.9431C89.2825 65.6235 91.1299 64.7658 92.8585 63.7761C94.2441 62.9843 95.7748 62.2453 97.3979 62.0474C98.5459 61.9154 99.5356 61.0841 100.75 61.3612C101.106 60.8598 101.634 61.0973 102.096 61.0313C106.16 60.3847 110.251 60.7938 114.328 60.7278C118.445 60.6618 122.576 60.7146 126.693 60.7146H201.883C201.922 60.9126 201.922 61.1369 202.002 61.3216C202.767 63.1954 204.192 64.6866 205.142 66.4548C205.525 67.1674 205.855 67.9328 206.317 68.6058C207.663 70.4928 208.613 72.6041 209.787 74.5967C210.539 75.8635 211.133 77.2359 211.912 78.4895C212.677 79.7035 213.442 80.9175 214.089 82.2107C214.63 83.306 215.184 84.4144 215.87 85.4173C216.675 86.6181 217.256 87.9377 218.048 89.1385C218.945 90.5109 219.539 92.068 220.502 93.4008C220.925 93.9814 221.043 94.7732 221.663 95.2218C221.822 96.4491 222.653 97.3596 223.234 98.3493C223.933 99.5369 224.672 100.711 225.292 101.952C225.847 103.047 226.335 104.195 227.061 105.172C228.063 106.504 228.618 108.075 229.541 109.434C230.373 110.648 230.782 112.126 231.6 113.34C232.906 115.306 233.909 117.457 235.202 119.436C235.717 120.215 235.981 121.112 236.482 121.864C237.248 123.026 237.868 124.253 238.515 125.467C238.963 126.298 239.214 127.09 239.135 128.014C203.4 128.014 167.679 128.014 131.945 127.987C131.074 127.987 130.282 128.304 129.437 128.33C128.619 128.357 127.735 128.146 126.97 128.37C124.661 129.043 122.219 129.214 119.976 130.178C119.329 130.455 118.538 130.402 117.878 130.679C115.767 131.563 113.589 132.355 111.689 133.648C110.356 134.559 109.05 135.535 107.743 136.499C107.189 136.908 106.648 137.33 106.134 137.779C105.619 138.227 104.999 138.636 104.563 139.098C103.917 139.784 103.138 140.325 102.61 141.196C102.135 141.975 101.462 142.701 100.882 143.466C99.694 145.036 99.0342 146.923 97.7674 148.441C97.4771 149.8 96.3818 150.869 96.5534 152.413C96.6457 153.27 95.92 153.996 95.6561 154.828C95.313 155.923 94.9435 156.979 94.9171 158.153C94.9171 158.826 95.1414 159.486 94.6532 160.185C94.2969 160.7 94.8247 161.505 94.3233 162.191C94.0858 162.508 94.2837 163.154 94.2837 163.642V271.822H73.8301L73.8961 271.835Z" fill="#34A853"/>
<path d="M332.537 271.506C332.629 271.611 332.709 271.809 332.801 271.822C333.236 271.862 333.685 271.836 334.121 271.836H399.902C404.732 271.202 409.588 271.585 414.444 271.519C419.339 271.453 424.222 271.506 429.118 271.506C432.192 270.899 435.293 271.281 438.381 271.163C438.632 271.163 438.988 271.123 439.107 270.965C439.556 270.344 440.176 270.542 440.743 270.516V339.926C439.991 340.428 440.717 341.351 440.136 341.998C439.819 342.341 440.044 343.133 439.938 343.713C439.833 344.254 439.582 344.769 439.437 345.31C439.292 345.864 439.252 346.432 439.094 346.986C438.869 347.765 438.632 348.556 438.315 349.295C438.025 349.995 437.721 350.694 437.325 351.367C436.019 353.597 434.686 355.801 433.142 357.859C432.311 358.968 431.229 359.892 430.239 360.881C429.949 361.172 429.579 361.409 429.25 361.66C428.088 362.544 426.756 363.177 425.673 364.18C425.41 364.431 425.053 364.576 424.789 364.814C424.394 365.17 424.077 365.579 423.417 365.539C423.127 365.526 422.784 365.856 422.506 366.094C422.018 366.529 421.504 366.846 420.817 366.819C420.712 366.819 420.54 366.767 420.501 366.819C419.735 367.73 418.535 367.69 417.545 368.06C416.608 368.416 415.605 368.68 414.629 368.997C414.536 369.023 414.444 369.129 414.351 369.116C413.058 369.01 411.831 369.485 410.525 369.485C399.374 369.432 388.21 369.459 377.047 369.459C376.413 368.97 376.466 368.944 375.885 367.822C374.843 365.83 373.721 363.877 372.626 361.911C372.349 361.422 372.019 360.96 371.768 360.459C370.792 358.48 369.644 356.593 368.417 354.772C368.06 354.257 368.245 353.439 367.506 353.162C366.833 351.842 366.186 350.523 365.487 349.216C365.078 348.451 364.669 347.672 364.168 346.96C362.808 345.02 361.726 342.895 360.618 340.837C359.536 338.805 358.256 336.891 357.2 334.846C356.171 332.853 355.023 330.913 353.941 328.934C353.202 327.588 352.344 326.295 351.539 324.975C351.46 324.843 351.394 324.711 351.315 324.579C349.942 322.059 348.676 319.486 347.039 317.111C346.525 316.358 346.01 315.553 345.746 314.683C345.482 313.785 344.796 313.205 344.387 312.439C343.965 311.621 343.608 310.777 343.133 309.998C341.985 308.111 340.996 306.145 339.795 304.284C338.99 303.057 338.502 301.632 337.776 300.352C336.654 298.386 335.44 296.485 334.292 294.532C333.751 293.609 333.302 292.632 332.761 291.709C332.128 290.6 331.481 289.478 330.769 288.41C330.083 287.38 329.726 286.193 328.948 285.19C328.182 284.187 327.773 282.933 327.153 281.825C326.652 280.927 326.111 280.043 325.517 279.212C324.963 278.42 324.422 277.681 324.553 276.626C324.593 276.362 324.356 276.058 324.25 275.781C325.081 275.781 325.675 275.227 326.322 274.844C327.734 274.026 329.093 273.089 330.544 272.324C331.151 271.994 331.706 271.44 332.497 271.492L332.537 271.506Z" fill="#E94335"/>
<path d="M104.907 271.836H195.298C193.649 274.132 192.408 276.666 191.102 279.16C190.112 281.073 189.03 282.934 187.869 284.742C186.959 286.153 186.22 287.671 185.401 289.149C184.57 290.68 183.831 292.25 182.855 293.702C182.155 294.757 181.707 295.971 181.073 297.08C180.136 298.729 179.081 300.313 178.183 301.989C177.194 303.836 176.098 305.631 175.016 307.438C174.515 308.27 174.119 309.154 173.552 309.972C172.72 311.173 172.232 312.611 171.519 313.891C170.846 315.105 170.028 316.24 169.329 317.441C168.22 319.328 167.046 321.175 166.228 323.234C165.806 324.316 165.119 325.332 164.42 326.269C163.443 327.549 162.81 329.014 161.966 330.373C160.633 332.497 159.538 334.754 158.31 336.931C157.901 337.644 157.571 338.383 157.202 339.109C156.423 340.666 155.513 342.144 154.668 343.661C154.418 344.11 154.206 344.572 153.969 345.02C152.821 347.198 151.58 349.322 150.248 351.381C148.941 353.4 148.11 355.696 146.632 357.622C146.606 358.401 146.012 358.902 145.682 359.536C144.903 361.027 144.032 362.478 143.175 363.93C142.317 365.395 141.42 366.82 140.549 368.285C140.311 368.68 139.717 368.878 139.889 369.499C137.698 369.499 135.495 369.499 133.304 369.499C132.658 369.499 132.011 369.499 131.378 369.38C130.784 369.274 130.216 369.01 129.622 368.852C128.725 368.614 127.841 368.298 126.93 368.219C126.31 368.166 125.862 367.849 125.334 367.664C124.568 367.387 123.948 366.767 123.025 366.833C122.721 366.859 122.391 366.556 122.074 366.384C120.808 365.685 119.66 364.814 118.419 364.062C115.952 362.544 113.985 360.446 112.098 358.322C110.673 356.712 109.433 354.878 108.549 352.898C108.008 351.697 107.229 350.589 106.886 349.309C106.53 348.029 106.107 346.762 105.83 345.456C105.685 344.783 105.566 344.123 105.553 343.437V343.107C105.448 342.658 105.289 342.21 105.236 341.761C105.184 341.273 105.276 340.771 105.223 340.283C104.59 334.622 104.986 328.948 104.92 323.273C104.854 317.56 104.907 311.846 104.907 306.132V271.849V271.836Z" fill="#1967D1"/>
<path d="M290.969 102.928C323.51 102.928 356.051 102.928 388.579 102.928C389.331 102.928 390.215 102.757 390.822 103.073C391.469 103.416 392.287 102.849 392.762 103.575C394.332 103.324 395.744 104.142 397.262 104.301C398.542 104.433 399.927 104.393 401.102 104.934C402.5 105.581 404.005 105.831 405.404 106.491C406.895 107.19 408.359 107.916 409.692 108.866C411.513 110.173 413.572 111.176 415.142 112.812C416.079 113.802 417.056 114.805 417.729 116.019C417.808 116.15 417.966 116.256 418.072 116.375C419.127 117.536 420.17 118.697 421.212 119.859C421.357 120.017 421.489 120.175 421.595 120.36C422.334 121.706 423.099 123.026 423.759 124.411C424.234 125.427 424.67 126.456 425.395 127.512C424.973 127.71 424.683 127.921 424.353 127.987C423.983 128.066 423.588 128 423.205 128H277.113C277.153 127.578 277.087 127.103 277.258 126.747C277.562 126.1 277.971 125.493 278.406 124.913C279.792 123.105 280.505 120.914 281.864 119.08C282.576 118.117 282.919 116.876 283.54 115.834C284.199 114.739 284.938 113.696 285.559 112.548C286.601 110.621 287.63 108.682 288.686 106.755C289.399 105.449 290.217 104.195 290.982 102.928H290.969Z" fill="#FBBC05"/>
<path d="M290.969 102.928C290.204 104.208 289.386 105.448 288.673 106.754C287.631 108.681 286.588 110.621 285.546 112.547C284.925 113.695 284.186 114.725 283.527 115.833C282.906 116.876 282.563 118.116 281.851 119.079C280.492 120.914 279.779 123.104 278.393 124.912C277.958 125.479 277.549 126.1 277.245 126.746C277.074 127.102 277.14 127.577 277.1 128H239.162C239.241 127.076 238.991 126.284 238.542 125.453C237.882 124.239 237.275 123.012 236.51 121.85C236.008 121.085 235.744 120.201 235.23 119.422C233.937 117.456 232.934 115.305 231.627 113.326C230.822 112.099 230.4 110.621 229.569 109.42C228.632 108.048 228.078 106.49 227.088 105.158C226.362 104.194 225.874 103.033 225.32 101.938C224.686 100.697 223.96 99.523 223.261 98.3354C222.68 97.3457 221.849 96.422 221.691 95.208C221.071 94.7461 220.952 93.9676 220.53 93.387C219.566 92.0542 218.972 90.4971 218.075 89.1247C217.283 87.9239 216.703 86.6043 215.898 85.4035C215.212 84.3874 214.657 83.2921 214.116 82.1969C213.47 80.9037 212.704 79.7028 211.939 78.4756C211.147 77.222 210.567 75.8628 209.814 74.5828C208.64 72.6035 207.69 70.4921 206.344 68.5919C205.869 67.9321 205.552 67.1668 205.17 66.441C204.219 64.6727 202.794 63.1948 202.029 61.3078C201.95 61.123 201.95 60.8987 201.91 60.7008C204.589 60.7008 207.281 60.6612 209.96 60.714C211.345 60.7404 212.744 60.7931 214.09 61.0835C214.763 61.2286 215.423 61.3474 216.096 61.3606C216.201 61.4661 216.32 61.5849 216.426 61.6905C218.247 61.8092 219.975 62.3635 221.717 62.8253C223.367 63.2608 224.779 64.1977 226.389 64.6991C227.193 64.9498 227.906 65.5833 228.592 66.1243C230.994 68.0245 233.184 70.149 235.19 72.4451C237.249 74.8072 239.386 77.0901 241.485 79.3993C242.778 80.8377 244.256 82.1705 245.14 83.9651C245.206 84.1103 245.364 84.2026 245.483 84.3214C247.383 86.3404 249.297 88.3461 251.197 90.3651C252.675 91.9486 254.113 93.5849 255.644 95.1156C257.979 97.4645 260.698 99.2855 263.733 100.645C264.749 101.107 265.818 101.45 266.847 101.872C267.863 102.294 269.051 102.439 270.159 102.677C271.07 102.862 271.954 102.914 272.838 102.914C278.882 102.941 284.925 102.914 290.969 102.914V102.928Z" fill="#188038"/>
<path d="M73.8963 271.835H94.3499C94.3499 291.958 94.3499 312.082 94.3499 332.192C94.3499 333.367 94.5874 334.489 94.9437 335.584C95.168 336.283 94.7457 337.062 95.2736 337.708C95.3 337.735 95.0361 337.946 95.0229 338.078C94.9833 338.526 94.8249 338.236 94.5874 338.249C93.5977 338.315 93.0699 337.59 92.3837 337.141C90.9981 336.244 89.4806 335.491 88.2402 334.436C86.3664 332.839 84.2946 331.414 82.975 329.237C82.8958 329.105 82.7507 328.999 82.6319 328.88C80.5206 327.046 79.1878 324.697 77.9606 322.243C77.0501 320.422 76.2583 318.548 75.6513 316.595C75.3082 315.46 75.0047 314.286 74.9123 313.111C74.8068 311.792 74.0414 310.617 74.2262 309.258C73.6455 308.796 73.9095 308.15 73.9095 307.582C73.8963 295.653 73.9095 283.724 73.9095 271.795L73.8963 271.835Z" fill="#1967D1"/>
<path d="M258.31 160C257.743 159.763 257.189 159.578 257.281 158.72C257.321 158.403 256.859 158.034 256.661 157.678C255.988 156.424 255.341 155.144 254.681 153.89C253.586 151.806 252.504 149.721 251.198 147.741C250.38 146.514 249.786 145.142 249.073 143.848C248.849 143.439 248.664 143.004 248.361 142.661C247.635 141.856 247.424 140.853 247.094 139.89H269.857C268.313 142.7 266.795 145.537 265.225 148.335C264.446 149.721 263.562 151.04 262.77 152.426C262.058 153.666 261.49 154.973 260.686 156.173C259.999 157.189 259.735 158.43 258.957 159.406C258.772 159.644 258.521 159.815 258.297 160.027L258.31 160Z" fill="#188038"/>
<path d="M105.566 343.094V343.424C105.474 343.344 105.381 343.278 105.289 343.199C105.381 343.16 105.474 343.133 105.566 343.094Z" fill="#4285F3"/>
</svg>
